<?xml version="1.0" encoding="UTF-8"?>
<svg id="uuid-75679afc-59d3-4159-ae75-72794b597307" data-name="uuid-1e7b1d02-8e15-41af-ad39-d1789ddc00aa" xmlns="http://www.w3.org/2000/svg" viewBox="0 0 3649.61 1873.43" fill="#7df6ff">
  <path d="M1765.3.71c379.42-7.81,798.15,48.75,1152.53,184.18,338.68,129.43,794.91,410.45,724.51,836.79-62.82,380.38-538.88,613.63-869.39,716.06-634.41,196.6-1466.2,183.98-2083.98-66.79C359.93,1537.39-64,1260.31,8.1,846.26,62.16,535.86,399.53,322.77,667.84,210.38,1009.02,67.48,1395.86,8.31,1765.3.71ZM2282.02,330.28c-4.07-10.15-11.17-20.64-17.22-29.8-76.81-116.36-190.86-222.57-332.07-249.51-214.74-40.97-395.52,104.49-497.17,279.32h846.47,0ZM938.42,330.28h448.19c61.7-109.34,145.27-212.09,258.16-270.67,1.55-5.68-4.77-3.99-8.72-3.9-15.37.35-35.6,4.02-51.18,6.41-230.69,35.27-463.28,123.2-646.44,268.16h-.01ZM2742.68,330.28c-18.91-18.35-42.62-34.64-64.65-49.55-122.39-82.83-266.15-144.12-409.03-182.15-21.13-5.62-177.67-43.32-184.67-37-.24,1.74-.23,2.45.91,3.87,2.68,3.34,37.1,22.97,44.61,28.32,83.92,59.77,152.7,145.51,200.16,236.51h412.68-.01ZM521.91,330.28h346.46c90.5-77.47,192.89-140.4,301.01-190.36l146.19-59.19c-252.1,39.16-503.17,103.66-732.93,215.27-20.34,9.88-43.86,19.84-60.73,34.28h0ZM3128.48,330.28c-.43-2.9-3.62-3.59-5.72-4.84-150.17-89.57-376.65-159.37-547.42-199.23-46.78-10.92-123.81-31.94-169.44-34.03-2.1-.1-9.07-1.29-8.71,1.98,152.1,52.48,294.83,132.13,417.46,236.11h313.83,0ZM807.9,384.03h-382.93C201.62,524.4-8.75,753.77,54.88,1040.12c38.99,175.49,178.23,315.04,320.19,414.95h402.12c-1.25-4.76-6.41-10.57-9.65-14.35-26.37-30.79-50.24-58-72.94-92.13-25.49-38.32-49.34-80.67-65.21-123.86h44.15c41.23,85.31,97.68,163,164.11,230.33h503.85c-29.49-74.68-58.06-150.59-71.02-230.33h44.15c13.99,79.66,41.45,156.81,75.16,230.02l938.95.4c33.9-73.51,60.08-150.86,76.12-230.42h44.15c-14.68,79.51-43.33,154.88-71.02,230.33h467.38c67.06-67.3,121.87-145.72,165.07-230.33h43.19c-4.45,19.26-14.71,38.27-23.95,55.7-33.53,63.24-78.73,119.55-123.84,174.63h369.49c199.92-139.45,376.24-355.68,320.91-616.5-41.98-197.84-208.43-348.81-370.81-454.54h-352.21c59.76,63.19,115.78,131.28,155.47,209.22h-47.03c-47.47-76.94-103.85-148.43-170.83-209.22h-448.19c3.71,15.26,12.18,29.54,18.17,44.21,21.88,53.52,41.76,108.58,54.76,165.01h-42.23c-14.66-45.86-28.77-91.65-47.09-136.22-7.8-18.99-19.88-51.32-30.1-67.79-1.81-2.92-3.38-4.05-6.73-4.79l-901.34-.05c-5.62,1.69-24.85,45.58-28.54,53.99-9.53,21.69-18.69,45.13-26.56,67.49-10.21,28.99-16.64,59.84-29.71,87.37h-41.27c18.03-72.04,44.78-141.52,74.86-209.22h-484.65c-65.43,61.92-125.26,129.84-168.91,209.22h-48.95c34.86-67.08,80.73-128.45,131.45-184.29,2.47-2.72,24.66-22.67,22.1-24.93h0ZM828.05,1506.9h-364.69c-.22,0-3.83,2.79-1.95,3.85,220.82,132.12,472.02,209.84,724.25,258.51,38.17,7.37,90.28,19.81,127.94,21.8,1.55.08,7.03.56,3.87-2-181.49-56.71-349.81-153.66-489.43-282.17h.01ZM1365.49,1506.9h-467.38c-.74,3.8.77,5.14,2.77,7.78,10.58,13.93,62.08,48.99,79.15,60.96,195.26,136.95,427.46,212.95,663.75,242.22,2.67-1.23-2.51-3.68-3.38-4.3-18.7-13.41-39.11-24.71-57.67-38.3-93.99-68.87-161.49-167.51-217.25-268.37h.01ZM2299.29,1506.9h-881.02c65.96,136.54,190.73,268.77,341.24,308.48,210.28,55.48,394.55-71.82,504.1-241.47,4.63-7.16,39.3-63.5,35.67-67.02h.01ZM2784.91,1506.9h-430.91c-15.27,22.91-27.7,47.59-42.39,70.86-49.7,78.69-110.72,150.45-186.38,205.19-11.33,8.2-24.95,15.24-35.78,23.72-1.38,1.08-5.68,3.25-4.2,5.38,235.72-36.79,471.8-120.94,661.07-267.92,8.75-6.8,29.67-22.02,35.84-29.42,2.17-2.61,3.37-4.13,2.75-7.81h0ZM3187.03,1506.9h-332.06c-114.85,105.67-250.89,190.77-395.88,249.05-20.79,8.36-42.66,14.52-63.34,23.06-4.78,1.97-3.69,2.49.52,2.44,35.47-.4,105.84-19.31,143.33-27.54,210.42-46.17,429.22-117.78,617.06-223.65,8.05-4.54,25.25-13.15,31.24-18.67,2.53-2.33,1.19-4.19-.86-4.69h0Z"/>
  <path d="M2381.43,720.49c46.72-.7,151.64-7.53,191.41,7.08,63.2,23.22,53.43,86.85,52.67,141.04-.62,44.05,1.12,88.81.15,132.43-.9,40.69-41.71,72.72-80.44,74.76-47.62,2.5-102.37.43-150.94,1.13-49.01.71-98.81,4.1-147.86,2.02-43.16-1.84-83.88-5.49-105.24-48.31-19.5-39.09-13.48-152.08-10.82-198.44,2.58-44.92,4.62-85.68,53.26-104.13,15.88-6.02,19.03-4.07,34.02-4.21,54.83-.52,109.14-2.55,163.79-3.37h0ZM2377.46,777.8c-6.05,1.65-24.56,32.95-29.06,40.18-13.98,22.49-47.23,76.92-50.53,101.11-11.37,83.45,91.03,136.9,145.32,72.39,45.21-53.71,6.3-107.68-22.65-157.67-6.4-11.05-24.81-45.37-32.14-52.31-3.05-2.89-6.57-4.9-10.95-3.7h0Z"/>
  <path d="M1618.86,723.77l188.12,259.14,189.04-259.14h78.7v349.34h-84.45v-201.54l-70.67,91.52-75.74,107.54c-7.2,6-55.07.92-67.21,2.08l-151.07-201.14v201.54h-86.37l1.92-349.34h77.74-.01Z"/>
  <path d="M3051.71,963.7v-239.93h78.7v349.34h-81.58c-76.24-59.72-149.26-123.44-224.62-184.22-19.64-15.84-47.04-40.96-67.5-53.42-3.3-2.01-5.63-5.06-10.19-4.21v241.85h-78.7v-349.34h81.58l294.79,236.89,7.52,3.04h0Z"/>
  <path d="M1076.62,723.77v256.24c0,1.29,2.85,14.14,3.7,15.5,9.32,14.9,32.38,8.68,45.17,8.42,76.38-1.55,154.32,8.09,230.49,4,10.09-.54,32.82-1.94,40.27-7.72,3.44-2.67,8.6-12.51,8.6-16.36v-260.08h84.45c.23,48.94-.27,97.95-.08,146.92.19,47.45,11.12,145.14-24.12,181.1-22.85,23.32-66.69,24.06-97.6,25.24-52.69,2-105.1-3.05-157.39-4-45.11-.82-107.22,5.52-149.63-.08-23.5-3.11-66.38-35.19-66.38-60.3v-288.87h82.54-.02Z"/>
  <polygon points="604.44 723.77 604.44 1003.04 607.32 1005.92 961.45 1005.92 961.45 1073.1 521.91 1073.1 521.91 723.77 604.44 723.77"/>
</svg>